<svg id="Lolex" xmlns="http://www.w3.org/2000/svg" width="510.854" height="903.065" viewBox="0 0 223.5 395.094">
  <defs>
    <style>
      .cls-1, .cls-2 {
        fill: #fff;
      }

      .cls-1, .cls-2, .cls-3, .cls-4, .cls-5, .cls-6 {
        stroke: #000;
      }

      .cls-1, .cls-6 {
        stroke-width: 4px;
      }

      .cls-1, .cls-2, .cls-5, .cls-6, .cls-7, .cls-8 {
        fill-rule: evenodd;
      }

      .cls-2, .cls-3, .cls-4, .cls-5 {
        stroke-width: 3px;
      }

      .cls-3 {
        fill: #afafaf;
      }

      .cls-4, .cls-5, .cls-6 {
        fill: none;
      }

      .cls-7 {
        fill: #b51616;
      }
    </style>
  </defs>
  <path id="base" class="cls-1" d="M214,75s77.609-1.8,81,0,6.708,46.723,11,49c2.659,3.677,12.007,1.756,12,4,1.16,0.611,25.911,64.242,29,68s10.076,5.942,13,8,2.942,13.839,2,16-6.523,2.106-7,4-2.513,29.754-1,31,7.273,0,8,2,0.758,12.506,0,15-22.114,23.62-23,26-16.956,55.662-19,60c-2.892,1.368-13.862-.853-14,1s-5.253,81.21-8,88c-1.686,4.243-1.343,9.238-3,13-1.02,6.945-9.034,4.965-15,5s-55.259.6-60,0-5.138-.3-6-10c-1.923-1.423-4.045-3.17-5-25s-6.892-68.307-7-70-13.039,1.12-14-4-13.337-40.322-15-45-17.363-42.515-18-55-2.671-42.312,8-64,23.415-46.814,25-56,2.6-9.965,4-10,9.562,1.52,11,0S214,75,214,75Z" transform="translate(-152.406 -72.188)"/>
  <path id="handle" class="cls-2" d="M357,226c1.267-.317,14.674-0.518,16,1s1.835,27.24,1,28-16.9,1.352-18,0S354.677,224.627,357,226Z" transform="translate(-152.406 -72.188)"/>
  <circle id="watchring" class="cls-3" cx="103.594" cy="168.813" r="86"/>
  <circle id="face" class="cls-4" cx="104.094" cy="169.313" r="71.5"/>
  <g id="detail">
    <path class="cls-5" d="M216,441v-1h83v1H216Z" transform="translate(-152.406 -72.188)"/>
    <path class="cls-5" d="M213,417v-1h60v1H213Zm87-24v1H239v-1h61Zm-95-30v-1h58v1H205ZM295,94v1H238V94h57Zm-86,14v-1h58v1H209Zm92,15v1H231v-1h70Z" transform="translate(-152.406 -72.188)"/>
    <path class="cls-6" d="M261,362h1V463h-1V362Zm-18,0h1V463h-1V362Z" transform="translate(-152.406 -72.188)"/>
    <path class="cls-6" d="M262,124h-1V77h1v47Z" transform="translate(-152.406 -72.188)"/>
    <path class="cls-6" d="M244,123h-1V76h1v47Z" transform="translate(-152.406 -72.188)"/>
    <path class="cls-7" d="M258.484,230c28.134,0,0-54,0-54S230.351,230,258.484,230Z" transform="translate(-152.406 -72.188)"/>
    <path id="arrow2" class="cls-8" d="M269.287,252.665c-13.378,9.619,18.719,25.327,18.719,25.327S282.665,243.046,269.287,252.665Z" transform="translate(-152.406 -72.188)"/>
    <circle cx="106.094" cy="168.313" r="4.5"/>
  </g>
</svg>
