<svg id="Nickeys" xmlns="http://www.w3.org/2000/svg" width="512" height="258.438" viewBox="0 0 512 258.438">
  <defs>
    <style>
      .cls-1 {
        fill: #fff;
      }

      .cls-1, .cls-2 {
        stroke: #000;
        stroke-width: 4px;
        fill-rule: evenodd;
      }

      .cls-2 {
        fill: #16b593;
      }
    </style>
  </defs>
  <path class="cls-1" d="M329,135c4.511,28.194,14.875,46.243-31,98-8.182,9.231-39.786,19.92-77.528,30.315C156.769,280.859,75.58,297.564,60,305c-33.833,19.172-10,84-10,84s404.925-5.181,410-8,1-173,1-173S324.8,108.736,329,135Z" transform="translate(3.813 -130.562)"/>
  <path class="cls-1" d="M46,359s326.705-6,358-6c73.363-1.539,19-130,19-130" transform="translate(3.813 -130.562)"/>
  <path class="cls-2" d="M314.062,365.81c1.387-21.766,18.964-16.178,18.964-16.178s14.588-1.482,13.974,17.19C346.488,382.384,328.036,383,328.036,383S313.038,381.892,314.062,365.81Z" transform="translate(3.813 -130.562)"/>
  <path class="cls-1" d="M309,226l63,61" transform="translate(3.813 -130.562)"/>
  <path class="cls-1" d="M293,275s-98.3,26.513-106,26-27-19-27-19" transform="translate(3.813 -130.562)"/>
</svg>
